<svg xmlns="http://www.w3.org/2000/svg" viewBox="0 0 76 76"><defs><style>.cls-1{fill:none;}.cls-2{fill:#c4c4c4;}</style></defs><g id="Layer_2" data-name="Layer 2"><g id="Layer_1-2" data-name="Layer 1"><rect class="cls-1" width="76" height="76"/><path class="cls-2" d="M68.54,23.66H7.46A3.3,3.3,0,0,0,4.16,27V49a3.3,3.3,0,0,0,3.3,3.3H68.54a3.3,3.3,0,0,0,3.3-3.3V27A3.3,3.3,0,0,0,68.54,23.66ZM7,27a.43.43,0,0,1,.43-.43H68.54A.43.43,0,0,1,69,27V49a.43.43,0,0,1-.43.43H7.46A.43.43,0,0,1,7,49Z"/><rect class="cls-2" x="12.08" y="34.25" width="7.9" height="7.51"/><rect class="cls-2" x="26.32" y="34.25" width="27.85" height="7.51"/></g></g></svg>