<svg xmlns="http://www.w3.org/2000/svg" viewBox="0 0 64.98 31.35"><defs><style>.cls-1{fill:#c4c4c4;}</style></defs><g id="Layer_2" data-name="Layer 2"><g id="Layer_1-2" data-name="Layer 1"><path class="cls-1" d="M49.31,0H15.68a15.68,15.68,0,1,0,0,31.35H49.31A15.68,15.68,0,0,0,49.31,0Zm0,29.35H15.68A13.68,13.68,0,1,1,15.68,2H49.31a13.68,13.68,0,0,1,0,27.35Z"/><path class="cls-1" d="M15.55,12a4.1,4.1,0,0,1,1.77.36l.27-.92a4.61,4.61,0,0,0-2.08-.4,4.38,4.38,0,0,0-4.59,4.62,4.1,4.1,0,0,0,4.34,4.44,5.6,5.6,0,0,0,2.32-.42l-.24-.89a4.55,4.55,0,0,1-1.85.36,3.19,3.19,0,0,1-3.37-3.53A3.26,3.26,0,0,1,15.55,12Z"/><path class="cls-1" d="M22.13,13.56a2.35,2.35,0,0,0-1.18.33,2.1,2.1,0,0,0-.82.8h0V10.76H19V20h1.15v-3.8a1.5,1.5,0,0,1,.07-.55,1.65,1.65,0,0,1,1.54-1.15c1.08,0,1.46.86,1.46,1.88V20h1.15V16.26C24.33,14.08,23,13.56,22.13,13.56Z"/><rect class="cls-1" x="26.19" y="13.7" width="1.15" height="6.31"/><path class="cls-1" d="M26.76,11.22a.69.69,0,0,0-.71.71.71.71,0,1,0,.71-.71Z"/><path class="cls-1" d="M32.54,13.56a2.5,2.5,0,0,0-2.25,1.23h0l-.05-1.09h-1c0,.6,0,1.26,0,2.06v6.83h1.13V19.16h0a2.21,2.21,0,0,0,1.94,1c1.49,0,2.87-1.12,2.87-3.38C35.21,14.85,34.06,13.56,32.54,13.56Zm-.4,5.7a1.77,1.77,0,0,1-1.72-1.35,3.23,3.23,0,0,1-.05-.47V16.36a1.93,1.93,0,0,1,.08-.47,1.83,1.83,0,0,1,1.73-1.42c1.22,0,1.88,1.08,1.88,2.35C34.06,18.27,33.36,19.26,32.14,19.26Z"/><polygon class="cls-1" points="55.67 10.93 51.98 14.62 48.3 10.93 47.23 11.99 50.92 15.68 47.23 19.36 48.3 20.42 51.98 16.74 55.67 20.42 56.73 19.36 53.04 15.68 56.73 11.99 55.67 10.93"/></g></g></svg>