<svg xmlns="http://www.w3.org/2000/svg" viewBox="0 0 66.94 20.37"><defs><style>.cls-1{fill:#c4c4c4;}</style></defs><g id="Layer_2" data-name="Layer 2"><g id="Layer_1-2" data-name="Layer 1"><polygon class="cls-1" points="24.93 4.33 22.21 5.78 22.73 7.82 24.41 6.92 24.41 15.7 26.74 15.7 26.74 4.33 24.93 4.33"/><path class="cls-1" d="M32,19.75H16.91a2,2,0,0,1-2-2V2.63a2,2,0,0,1,2-2H32a2,2,0,0,1,2,2V17.75A2,2,0,0,1,32,19.75ZM16.91,2.63V17.75H32V2.63Z"/><rect class="cls-1" x="37.53" y="17" width="2.75" height="2.75"/><rect class="cls-1" x="43.41" y="17" width="2.75" height="2.75"/><rect class="cls-1" x="49.28" y="17" width="2.75" height="2.75"/><polygon class="cls-1" points="7.01 20.38 0 10.19 7.01 0 8.66 1.13 2.43 10.19 8.66 19.24 7.01 20.38"/><polygon class="cls-1" points="59.93 0 66.94 10.19 59.93 20.38 58.29 19.24 64.52 10.19 58.29 1.13 59.93 0"/></g></g></svg>