<svg xmlns="http://www.w3.org/2000/svg" viewBox="0 0 66.22 66.22"><defs><style>.cls-1,.cls-10,.cls-2,.cls-3,.cls-4,.cls-5,.cls-6,.cls-7,.cls-8,.cls-9{fill:#c4c4c4;}.cls-1{opacity:0.05;}.cls-3{opacity:0.1;}.cls-4{opacity:0.15;}.cls-5{opacity:0.73;}.cls-6{opacity:0.6;}.cls-7{opacity:0.52;}.cls-8{opacity:0.32;}.cls-9{opacity:0.25;}.cls-10{opacity:0.45;}</style></defs><g id="Layer_2" data-name="Layer 2"><g id="Layer_1-2" data-name="Layer 1"><path class="cls-1" d="M25.63,17.2a1.73,1.73,0,0,1-1.58-1.05L19.26,4.87a1.71,1.71,0,0,1,3.15-1.34L27.2,14.81a1.71,1.71,0,0,1-.9,2.25A1.79,1.79,0,0,1,25.63,17.2Z"/><path class="cls-2" d="M33.11,15.68A1.71,1.71,0,0,1,31.4,14V1.71a1.71,1.71,0,0,1,3.42,0V14A1.72,1.72,0,0,1,33.11,15.68Z"/><path class="cls-3" d="M19.57,21.28a1.69,1.69,0,0,1-1.21-.5L9.7,12.12A1.71,1.71,0,0,1,12.12,9.7l8.66,8.66a1.71,1.71,0,0,1,0,2.42A1.67,1.67,0,0,1,19.57,21.28Z"/><path class="cls-1" d="M25.63,17.2a1.73,1.73,0,0,1-1.58-1.05L19.26,4.87a1.71,1.71,0,0,1,3.15-1.34L27.2,14.81a1.71,1.71,0,0,1-.9,2.25A1.79,1.79,0,0,1,25.63,17.2Z"/><path class="cls-4" d="M15.35,27.69a1.81,1.81,0,0,1-.64-.12L3.34,23A1.71,1.71,0,0,1,4.62,19.8L16,24.39a1.71,1.71,0,0,1-.64,3.3Z"/><path class="cls-3" d="M19.57,21.28a1.69,1.69,0,0,1-1.21-.5L9.7,12.12A1.71,1.71,0,0,1,12.12,9.7l8.66,8.66a1.71,1.71,0,0,1,0,2.42A1.67,1.67,0,0,1,19.57,21.28Z"/><path class="cls-4" d="M14,34.82H1.71a1.71,1.71,0,0,1,0-3.42H14a1.71,1.71,0,1,1,0,3.42Z"/><path class="cls-4" d="M15.35,27.69a1.81,1.81,0,0,1-.64-.12L3.34,23A1.71,1.71,0,0,1,4.62,19.8L16,24.39a1.71,1.71,0,0,1-.64,3.3Z"/><path class="cls-5" d="M40.59,17.2a1.79,1.79,0,0,1-.67-.14A1.72,1.72,0,0,1,39,14.81L43.8,3.53A1.71,1.71,0,0,1,47,4.87L42.17,16.15A1.73,1.73,0,0,1,40.59,17.2Z"/><path class="cls-2" d="M33.11,15.68A1.71,1.71,0,0,1,31.4,14V1.71a1.71,1.71,0,0,1,3.42,0V14A1.72,1.72,0,0,1,33.11,15.68Z"/><path class="cls-5" d="M40.59,17.2a1.79,1.79,0,0,1-.67-.14A1.72,1.72,0,0,1,39,14.81L43.8,3.53A1.71,1.71,0,0,1,47,4.87L42.17,16.15A1.73,1.73,0,0,1,40.59,17.2Z"/><path class="cls-6" d="M46.64,21.28a1.7,1.7,0,0,1-1.21-.5,1.73,1.73,0,0,1,0-2.42L54.1,9.7a1.71,1.71,0,0,1,2.42,2.42l-8.66,8.66A1.71,1.71,0,0,1,46.64,21.28Z"/><path class="cls-6" d="M51,28a1.72,1.72,0,0,1-.62-3.32L61.8,20.26A1.71,1.71,0,1,1,63,23.46L51.58,27.85A1.66,1.66,0,0,1,51,28Z"/><path class="cls-7" d="M64.5,34.82H52.25a1.71,1.71,0,0,1,0-3.42H64.5a1.71,1.71,0,1,1,0,3.42Z"/><path class="cls-6" d="M51,28a1.72,1.72,0,0,1-.62-3.32L61.8,20.26A1.71,1.71,0,1,1,63,23.46L51.58,27.85A1.66,1.66,0,0,1,51,28Z"/><path class="cls-6" d="M46.64,21.28a1.7,1.7,0,0,1-1.21-.5,1.73,1.73,0,0,1,0-2.42L54.1,9.7a1.71,1.71,0,0,1,2.42,2.42l-8.66,8.66A1.71,1.71,0,0,1,46.64,21.28Z"/><path class="cls-8" d="M20.84,63.73a1.75,1.75,0,0,1-.67-.14,1.71,1.71,0,0,1-.91-2.24l4.79-11.29A1.71,1.71,0,0,1,27.2,51.4L22.41,62.68A1.7,1.7,0,0,1,20.84,63.73Z"/><path class="cls-9" d="M10.91,57A1.71,1.71,0,0,1,9.7,54.1l8.66-8.67a1.71,1.71,0,1,1,2.42,2.43l-8.66,8.66A1.71,1.71,0,0,1,10.91,57Z"/><path class="cls-10" d="M45.38,63.73a1.71,1.71,0,0,1-1.58-1L39,51.4a1.72,1.72,0,0,1,3.16-1.34L47,61.35a1.7,1.7,0,0,1-.9,2.24A1.79,1.79,0,0,1,45.38,63.73Z"/><path class="cls-10" d="M55.31,57a1.71,1.71,0,0,1-1.21-.5l-8.67-8.66a1.72,1.72,0,1,1,2.43-2.43l8.66,8.67a1.71,1.71,0,0,1,0,2.42A1.73,1.73,0,0,1,55.31,57Z"/><path class="cls-7" d="M62.2,46.62a1.81,1.81,0,0,1-.64-.12L50.19,41.9a1.71,1.71,0,1,1,1.29-3.17l11.36,4.59a1.71,1.71,0,0,1-.64,3.3Z"/><path class="cls-7" d="M64.5,34.82H52.25a1.71,1.71,0,0,1,0-3.42H64.5a1.71,1.71,0,1,1,0,3.42Z"/><path class="cls-10" d="M55.31,57a1.71,1.71,0,0,1-1.21-.5l-8.67-8.66a1.72,1.72,0,1,1,2.43-2.43l8.66,8.67a1.71,1.71,0,0,1,0,2.42A1.73,1.73,0,0,1,55.31,57Z"/><path class="cls-7" d="M62.2,46.62a1.81,1.81,0,0,1-.64-.12L50.19,41.9a1.71,1.71,0,1,1,1.29-3.17l11.36,4.59a1.71,1.71,0,0,1-.64,3.3Z"/><path class="cls-4" d="M14,34.82H1.71a1.71,1.71,0,0,1,0-3.42H14a1.71,1.71,0,1,1,0,3.42Z"/><path class="cls-9" d="M3.8,46.07a1.71,1.71,0,0,1-.62-3.31l11.46-4.4a1.71,1.71,0,1,1,1.22,3.2L4.41,46A1.64,1.64,0,0,1,3.8,46.07Z"/><path class="cls-8" d="M33.11,66.22A1.71,1.71,0,0,1,31.4,64.5V52.25a1.71,1.71,0,0,1,3.42,0V64.5A1.72,1.72,0,0,1,33.11,66.22Z"/><path class="cls-8" d="M20.84,63.73a1.75,1.75,0,0,1-.67-.14,1.71,1.71,0,0,1-.91-2.24l4.79-11.29A1.71,1.71,0,0,1,27.2,51.4L22.41,62.68A1.7,1.7,0,0,1,20.84,63.73Z"/><path class="cls-10" d="M45.38,63.73a1.71,1.71,0,0,1-1.58-1L39,51.4a1.72,1.72,0,0,1,3.16-1.34L47,61.35a1.7,1.7,0,0,1-.9,2.24A1.79,1.79,0,0,1,45.38,63.73Z"/><path class="cls-8" d="M33.11,66.22A1.71,1.71,0,0,1,31.4,64.5V52.25a1.71,1.71,0,0,1,3.42,0V64.5A1.72,1.72,0,0,1,33.11,66.22Z"/><path class="cls-9" d="M10.91,57A1.71,1.71,0,0,1,9.7,54.1l8.66-8.67a1.71,1.71,0,1,1,2.42,2.43l-8.66,8.66A1.71,1.71,0,0,1,10.91,57Z"/><path class="cls-9" d="M3.8,46.07a1.71,1.71,0,0,1-.62-3.31l11.46-4.4a1.71,1.71,0,1,1,1.22,3.2L4.41,46A1.64,1.64,0,0,1,3.8,46.07Z"/></g></g></svg>